<svg id="svg" version="1.1" xmlns="http://www.w3.org/2000/svg" width="400" height="222.5444957152274" viewBox="0, 0, 400,222.5444957152274">
	<g id="svgg">
		<path id="path0" d="M220.613 35.816 C 218.787 37.522,221.840 41.891,232.924 53.433 C 234.282 54.846,236.394 57.096,237.618 58.433 C 242.970 64.277,245.084 66.563,246.874 68.444 C 247.925 69.548,249.528 71.266,250.436 72.262 C 252.762 74.814,263.199 85.194,267.446 89.179 C 271.903 93.361,272.374 93.799,282.137 102.842 C 290.246 110.352,291.184 111.228,295.382 115.204 C 296.668 116.422,299.322 118.920,301.279 120.757 C 304.868 124.123,307.816 126.922,312.524 131.434 C 313.934 132.785,316.889 135.592,319.091 137.673 C 321.292 139.754,324.147 142.459,325.434 143.683 C 329.455 147.508,335.870 153.517,339.677 157.025 C 341.217 158.443,345.784 162.266,347.682 163.725 C 348.472 164.333,349.274 164.949,349.462 165.094 C 350.403 165.817,351.965 166.961,353.367 167.951 C 354.224 168.557,355.025 169.134,355.147 169.233 C 355.270 169.333,355.911 169.764,356.572 170.192 C 357.233 170.620,358.335 171.355,359.020 171.825 C 361.355 173.426,366.465 176.527,366.984 176.657 C 367.269 176.729,367.501 176.854,367.501 176.936 C 367.501 177.018,368.348 177.019,369.384 176.938 C 374.749 176.521,377.136 170.625,373.664 166.365 C 373.475 166.133,372.223 164.480,370.882 162.691 C 362.589 151.626,357.671 146.470,340.011 130.328 C 338.672 129.104,336.174 126.800,334.461 125.209 C 332.747 123.617,330.744 121.764,330.009 121.091 C 329.274 120.417,327.915 119.165,326.989 118.308 C 326.063 117.451,324.260 115.799,322.982 114.636 C 321.704 113.472,319.299 111.269,317.638 109.738 C 312.710 105.199,310.244 102.948,309.192 102.032 C 308.647 101.557,307.542 100.568,306.737 99.833 C 305.932 99.098,303.984 97.346,302.407 95.938 C 300.831 94.530,299.431 93.276,299.298 93.152 C 299.164 93.028,297.702 91.728,296.049 90.264 C 294.396 88.801,292.994 87.544,292.933 87.472 C 292.871 87.400,291.119 85.849,289.037 84.026 C 286.956 82.202,284.953 80.439,284.585 80.107 C 284.218 79.775,283.058 78.769,282.008 77.871 C 280.957 76.973,279.254 75.498,278.224 74.594 C 275.504 72.208,275.481 72.189,272.448 69.751 C 266.074 64.627,261.484 61.420,245.409 50.857 C 240.969 47.940,238.469 46.209,233.834 42.846 C 229.496 39.698,228.077 38.730,226.155 37.607 C 225.237 37.070,224.424 36.544,224.349 36.438 C 224.274 36.332,224.124 36.240,224.015 36.234 C 223.643 36.213,222.816 35.766,222.816 35.586 C 222.816 35.487,222.666 35.464,222.482 35.534 C 222.298 35.605,222.148 35.552,222.148 35.416 C 222.148 34.951,221.304 35.170,220.613 35.816 " stroke="none" fill="#e46c14" fill-rule="evenodd"/>
		<path id="path1" d="M218.587 42.111 C 217.337 42.526,213.001 44.514,212.799 44.765 C 212.738 44.842,212.287 45.122,211.797 45.388 C 210.790 45.935,209.712 46.576,208.570 47.306 C 206.172 48.840,203.614 50.498,200.445 52.572 C 198.486 53.854,193.979 56.740,190.428 58.985 C 186.878 61.230,182.671 63.915,181.080 64.951 C 179.488 65.987,177.585 67.222,176.850 67.695 C 169.910 72.171,165.730 75.197,142.879 92.298 C 129.124 102.591,125.692 105.143,118.865 110.152 C 114.573 113.301,114.155 113.608,111.853 115.304 C 110.629 116.205,109.226 117.232,108.737 117.585 C 108.247 117.937,106.895 118.926,105.732 119.781 C 104.569 120.637,103.166 121.667,102.615 122.070 C 102.065 122.473,100.462 123.649,99.054 124.684 C 97.646 125.718,95.405 127.361,94.074 128.335 C 90.659 130.834,83.308 136.292,79.269 139.329 C 77.385 140.745,75.582 142.098,75.262 142.336 C 69.248 146.808,53.491 162.405,51.866 165.494 C 50.149 168.758,51.975 173.431,55.314 174.318 C 55.804 174.448,56.379 174.646,56.591 174.757 C 57.087 175.015,58.256 175.018,58.415 174.761 C 58.482 174.652,58.873 174.500,59.284 174.423 C 60.513 174.193,73.542 167.479,77.017 165.285 C 77.446 165.015,79.149 163.955,80.801 162.930 C 83.795 161.074,88.613 157.758,91.152 155.806 C 91.886 155.242,96.544 151.727,101.503 147.997 C 106.461 144.266,111.770 140.262,113.300 139.098 C 114.830 137.935,117.785 135.691,119.866 134.112 C 130.300 126.196,137.284 120.861,142.885 116.528 C 146.348 113.848,151.218 110.056,152.031 109.405 C 152.490 109.037,154.086 107.785,155.578 106.622 C 157.071 105.459,160.841 102.474,163.957 99.989 C 167.269 97.347,169.727 95.535,169.876 95.627 C 170.027 95.720,170.069 95.685,169.980 95.540 C 169.893 95.400,170.515 94.750,171.448 94.006 C 179.517 87.570,185.617 81.776,197.885 68.895 C 204.752 61.685,208.042 58.367,213.250 53.397 C 218.119 48.750,221.480 44.695,221.480 43.466 C 221.480 42.144,220.240 41.563,218.587 42.111 " stroke="none" fill="#242434" fill-rule="evenodd"/>
	</g>
</svg>